<svg width="25" height="14" viewBox="0 0 25 14" fill="none" xmlns="http://www.w3.org/2000/svg">
<path d="M24.3423 0.62176C24.1351 0.424665 23.8891 0.268297 23.6182 0.161607C23.3474 0.0549171 23.057 0 22.7638 0C22.4706 0 22.1802 0.0549171 21.9093 0.161607C21.6385 0.268297 21.3924 0.424665 21.1853 0.62176L12.498 8.87095L3.81079 0.62176C3.39215 0.22423 2.82436 0.000900249 2.23231 0.000900249C1.64027 0.000900249 1.07246 0.22423 0.653826 0.62176C0.235186 1.01929 0 1.55845 0 2.12065C0 2.68284 0.235186 3.222 0.653826 3.61953L10.9308 13.3782C11.1379 13.5753 11.3839 13.7317 11.6548 13.8384C11.9257 13.9451 12.216 14 12.5092 14C12.8025 14 13.0928 13.9451 13.3637 13.8384C13.6346 13.7317 13.8806 13.5753 14.0877 13.3782L24.3647 3.61953C25.2155 2.81162 25.2155 1.45093 24.3423 0.62176Z" fill="black"/>
</svg>
